<svg width="31" height="31" viewBox="0 0 31 31" fill="none" xmlns="http://www.w3.org/2000/svg">
<g id="iwwa:humidity">
<g id="Group">
<path id="Vector" d="M21.6768 15.5135C20.188 10.6175 15.8065 5.39221 15.5838 5.12821C15.549 5.09012 15.5066 5.0597 15.4594 5.03889C15.4122 5.01807 15.3612 5.00732 15.3096 5.00732C15.2581 5.00732 15.207 5.01807 15.1598 5.03889C15.1126 5.0597 15.0703 5.09012 15.0355 5.12821C14.8128 5.39221 10.4305 10.6167 8.94101 15.5135C8.63576 16.5177 8.44226 17.51 8.44226 18.4407C8.44226 22.2267 11.5233 25.307 15.3093 25.307C19.0953 25.307 22.1748 22.2267 22.1748 18.4407C22.1755 17.51 21.982 16.5185 21.6768 15.5135ZM15.31 24.59C11.9193 24.59 9.16076 21.8315 9.16076 18.4415C9.16076 17.5212 9.36551 16.5267 9.69251 15.5142C10.9953 11.483 14.3298 7.14721 15.31 5.92846C16.2903 7.14721 19.6248 11.483 20.926 15.5142C21.253 16.5275 21.4578 17.5212 21.4578 18.4415C21.4578 21.8315 18.7 24.59 15.31 24.59Z" fill="black"/>
<path id="Vector_2" d="M11.4609 15.5134C11.0859 16.4659 10.8354 17.4199 10.8354 18.2884C10.8354 19.475 11.3068 20.6131 12.1459 21.4521C12.985 22.2912 14.123 22.7626 15.3096 22.7626C16.4962 22.7626 17.6342 22.2912 18.4733 21.4521C19.3123 20.6131 19.7837 19.475 19.7837 18.2884C19.7837 17.4199 19.5332 16.4659 19.1582 15.5134H11.4609Z" fill="black"/>
</g>
</g>
</svg>
